All The Episodes of Naruto Shippuden Season 9 (Ep 176-196) at 480p Video Quality :)

Please seed after you download.

--------------------------------------------------------------------------------

Cover
------
   
http://img39.imageshack.us/img39/4682/narutocursator.jpg

---------------------------------------------------------------------------------

Info
---------------------------------------------------------------------------------

Torrent Statistics
-------------------
     
http://torrent-stats.info/f886/1fadd632e.png

---------------------------------------------------------------------------------

General
--------

Format                                   : MPEG-4
Format profile                           : Base Media
Codec ID                                 : isom
File size                                : 25.2 MiB
Duration                                 : 23mn 9s
Overall bit rate mode                    : Variable
Overall bit rate                         : 152 Kbps
Encoded date                             : UTC 2011-02-11 07:31:02
Tagged date                              : UTC 2011-02-11 07:31:02


Video
---------------------------------------

ID                                       : 1
Format                                   : AVC
Format/Info                              : Advanced Video Codec
Format profile                           : High@L3.0
Format settings, CABAC                   : Yes
Format settings, ReFrames                : 8 frames
Codec ID                                 : avc1
Codec ID/Info                            : Advanced Video Coding
Duration                                 : 23mn 9s
Bit rate                                 : 101 Kbps
Maximum bit rate                         : 806 Kbps
Width                                    : 640 pixels
Height                                   : 360 pixels
Display aspect ratio                     : 16:9
Frame rate mode                          : Constant
Frame rate                               : 23.976 fps
Color space                              : YUV
Chroma subsampling                       : 4:2:0
Bit depth                                : 8 bits
Scan type                                : Progressive
Bits/(Pixel*Frame)                       : 0.018
Stream size                              : 16.7 MiB (66%)
Title                                    : Imported with GPAC 0.4.6-DEV (build 1)
Writing library                          : x264 core 92 r1510 33d382a

Audio
----------------------------------

ID                                       : 2
Format                                   : AAC
Format/Info                              : Advanced Audio Codec
Format profile                           : LC
Codec ID                                 : 40
Duration                                 : 23mn 9s
Bit rate mode                            : Variable
Bit rate                                 : 48.0 Kbps
Maximum bit rate                         : 95.8 Kbps
Channel(s)                               : 2 channels
Channel positions                        : Front: L R
Sampling rate                            : 44.1 KHz
Compression mode                         : Lossy
Stream size                              : 7.93 MiB (31%)
Encoded date                             : UTC 2011-02-11 07:31:03
Tagged date                              : UTC 2011-02-11 07:31:03


----------------------------------------------------------------------------------

Screenshots
----------------------------------------------------------------------------------
                    
http://img17.imageshack.us/img17/1644/naruto1n.png
                    
http://img96.imageshack.us/img96/4729/naruto2c.png
                    
http://img717.imageshack.us/img717/3892/naruto3w.png
                    
http://img831.imageshack.us/img831/6505/naruto4.png
                    
http://img194.imageshack.us/img194/3089/naruto5x.png
 

----------------------------------------------------------------------------------

Story
----------------------------------------------------------------------------------

This arc is shown as multiple flashbacks from different characters, such as Iruka remembering the time he first met Naruto and Kakashi remembering when he was appointed as leader of Team 7 from his perspective. The first flashback takes place prior Part I while the rest all take place before the time-skip.

----------------------------------------------------------------------------------

Thank you for downloading. 

Enjoy Watching :)		
--------------------------------------------------------------------------------

Facebook and Email
------------------

Facebook/Cursator (Add .com)

Cursator@ymail.com 

Thank you :)		
					